<mxfile host="app.diagrams.net" modified="2024-07-29T10:01:27.153Z" agent="Mozilla/5.0 (Windows NT 10.0; Win64; x64) AppleWebKit/537.36 (KHTML, like Gecko) Chrome/127.0.0.0 Safari/537.36" version="24.7.1" etag="NwtmbyJBbCDpHTJi_jFy" type="github">
  <diagram name="Page-1" id="ozakT-IAKIU9cIku5rIr">
    <mxGraphModel>
      <root>
        <mxCell id="0" />
        <mxCell id="1" parent="0" />
      </root>
    </mxGraphModel>
  </diagram>
</mxfile>
